<svg width="494" height="158" viewBox="0 0 494 158" fill="none" xmlns="http://www.w3.org/2000/svg">
<!-- Digit 4 -->
<rect x="0.0405273" y="0.522461" width="32.6255" height="77.5957" rx="6.26271" fill="#465FFF" stroke="#465FFF"/>
<rect x="75.8726" y="3.16748" width="32.6255" height="154.31" rx="6.26271" fill="#465FFF" stroke="#465FFF"/>
<rect x="16.7939" y="91.3442" width="32.6255" height="77.5957" rx="6.26271" transform="rotate(-90 16.7939 91.3442)" fill="#465FFF" stroke="#465FFF"/>

<!-- Digit 0 -->
<rect x="163.27" y="12.8696" width="166.462" height="130.311" rx="28" stroke="#465FFF" stroke-width="24"/>
<rect x="213.874" y="42.0487" width="22.1453" height="20.7141" rx="2.63433" fill="#465FFF" stroke="#465FFF" stroke-width="0.752667"/>
<rect x="257.523" y="42.0487" width="22.1453" height="20.7141" rx="2.63433" fill="#465FFF" stroke="#465FFF" stroke-width="0.752667"/>
<rect x="268.972" y="98.578" width="22.1453" height="20.7141" rx="2.63433" fill="#465FFF" stroke="#465FFF" stroke-width="0.752667"/>
<rect x="202.425" y="98.578" width="22.1453" height="20.7141" rx="2.63433" fill="#465FFF" stroke="#465FFF" stroke-width="0.752667"/>
<rect x="218.167" y="83.1932" width="57.5655" height="20.7141" rx="2.63433" fill="#465FFF" stroke="#465FFF" stroke-width="0.752667"/>

<!-- Digit 3 -->
<rect x="460.859" y="11.188" width="32.6255" height="132.562" rx="6.26271" fill="#465FFF" stroke="#465FFF"/>
<rect x="371.731" y="33.4458" width="32.6255" height="107.028" rx="6.26271" transform="rotate(-90 371.731 33.4458)" fill="#465FFF" stroke="#465FFF"/>
<rect x="371.731" y="155.18" width="30" height="107.028" rx="6.26271" transform="rotate(-90 371.731 155.18)" fill="#465FFF" stroke="#465FFF"/>
<rect x="388.096" y="93.7812" width="32.6255" height="91.6638" rx="6.26271" transform="rotate(-90 388.096 93.7812)" fill="#465FFF" stroke="#465FFF"/>
</svg>
