<?xml version="1.0" encoding="UTF-8"?>
<!DOCTYPE svg PUBLIC "-//W3C//DTD SVG 1.1//EN" "http://www.w3.org/Graphics/SVG/1.1/DTD/svg11.dtd">
<!-- Creator: CorelDRAW (Evaluation Version) -->
<svg xmlns="http://www.w3.org/2000/svg" xml:space="preserve" width="231px" height="48px" version="1.1" style="shape-rendering:geometricPrecision; text-rendering:geometricPrecision; image-rendering:optimizeQuality; fill-rule:evenodd; clip-rule:evenodd"
viewBox="0 0 117.53 24.42"
 xmlns:xlink="http://www.w3.org/1999/xlink"
 xmlns:xodm="http://www.corel.com/coreldraw/odm/2003">
 <defs>
  <style type="text/css">
   <![CDATA[
    .fil0 {fill:none}
    .fil2 {fill:#FEFEFE;fill-rule:nonzero}
    .fil3 {fill:white;fill-rule:nonzero}
    .fil1 {fill:url(#id0)}
   ]]>
  </style>
  <linearGradient id="id0" gradientUnits="userSpaceOnUse" x1="-3.57" y1="-13.11" x2="32.97" y2="45.61">
   <stop offset="0" style="stop-opacity:1; stop-color:#364A94"/>
   <stop offset="1" style="stop-opacity:1; stop-color:#7D7AB8"/>
  </linearGradient>
 </defs>
 <g id="Layer_x0020_1">
  <metadata id="CorelCorpID_0Corel-Layer"/>
  <g id="_671452448">
   <rect class="fil0" width="117.53" height="24.42"/>
   <g>
    <path class="fil1" d="M19.42 23.85l-14.37 0c-2.46,0 -4.52,-2.06 -4.52,-4.52l0 -14.37c0,-2.47 2.06,-4.52 4.52,-4.52l14.37 0c2.47,0 4.52,2.05 4.52,4.52l0 14.37c0,2.46 -2.05,4.52 -4.52,4.52z"/>
    <path class="fil2" d="M12.85 14.4l-2.05 0 -3.69 -4.1 3.69 -4.11 2.05 0 -3.69 4.11 3.69 4.1zm-2.46 0l-1.64 0 -3.7 -4.1 3.7 -4.11 1.23 0 -3.29 4.11c1.24,1.23 2.47,2.87 3.7,4.1l0 0z"/>
    <path class="fil2" d="M12.03 9.89l2.06 0 3.69 4.1 -3.69 4.52 -2.06 0 4.11 -4.11 -4.11 -4.51zm2.88 0l1.23 0 4.1 4.51 -4.1 4.11 -1.23 0 3.69 -4.52c-1.23,-1.23 -2.46,-2.46 -3.69,-4.1z"/>
   </g>
   <path class="fil3" d="M34.94 6.54c1.3,0 2.44,0.27 3.41,0.77 0.96,0.51 1.71,1.25 2.24,2.18 0.54,0.93 0.81,2 0.81,3.21 0,1.21 -0.27,2.28 -0.81,3.21 -0.53,0.93 -1.28,1.66 -2.24,2.17 -0.99,0.51 -2.13,0.77 -3.41,0.77l-4.61 0 0 -12.31 4.61 0zm-0.19 9.72c1.14,0 2.02,-0.32 2.65,-0.93 0.63,-0.62 0.95,-1.49 0.95,-2.63 0,-1.14 -0.32,-2.02 -0.95,-2.65 -0.63,-0.63 -1.51,-0.95 -2.65,-0.95l-1.42 0 0 7.16 1.42 0z"/>
   <polygon id="_1" class="fil3" points="51.91,9.07 45.78,23.5 42.55,23.5 44.8,18.52 40.82,9.07 44.16,9.07 46.43,15.19 48.67,9.07 "/>
   <path id="_2" class="fil3" d="M56.45 6.54c1.3,0 2.44,0.27 3.41,0.77 0.96,0.51 1.71,1.25 2.24,2.18 0.54,0.93 0.81,2 0.81,3.21 0,1.21 -0.27,2.28 -0.81,3.21 -0.53,0.93 -1.28,1.66 -2.24,2.17 -0.99,0.51 -2.13,0.77 -3.41,0.77l-4.61 0 0 -12.31 4.61 0zm-0.19 9.72c1.14,0 2.02,-0.32 2.65,-0.93 0.63,-0.62 0.95,-1.49 0.95,-2.63 0,-1.14 -0.32,-2.02 -0.95,-2.65 -0.63,-0.63 -1.51,-0.95 -2.65,-0.95l-1.42 0 0 7.16 1.42 0z"/>
   <path id="_3" class="fil3" d="M72.65 13.8c0,0.28 -0.01,0.58 -0.05,0.88l-6.78 0c0.05,0.61 0.24,1.07 0.57,1.4 0.36,0.32 0.78,0.48 1.28,0.48 0.76,0 1.27,-0.32 1.56,-0.95l3.2 0c-0.16,0.65 -0.46,1.23 -0.9,1.73 -0.42,0.51 -0.94,0.92 -1.59,1.21 -0.65,0.3 -1.37,0.44 -2.16,0.44 -0.97,0 -1.81,-0.21 -2.56,-0.61 -0.75,-0.4 -1.33,-1 -1.75,-1.76 -0.42,-0.75 -0.64,-1.64 -0.64,-2.66 0,-1.02 0.22,-1.91 0.62,-2.67 0.42,-0.75 1,-1.35 1.75,-1.75 0.76,-0.4 1.61,-0.61 2.58,-0.61 0.95,0 1.79,0.19 2.52,0.59 0.74,0.41 1.32,0.97 1.72,1.7 0.42,0.74 0.63,1.6 0.63,2.58zm-3.06 -0.79c0,-0.51 -0.18,-0.93 -0.53,-1.22 -0.35,-0.3 -0.79,-0.46 -1.32,-0.46 -0.5,0 -0.93,0.14 -1.28,0.44 -0.33,0.3 -0.54,0.7 -0.63,1.24l3.76 0z"/>
   <polygon id="_4" class="fil3" points="77.47,16.05 79.6,9.07 82.79,9.07 79.32,18.85 75.62,18.85 72.14,9.07 75.35,9.07 "/>
   <path id="_5" class="fil3" d="M94.27 16.68l-4.59 0 -0.74 2.17 -3.14 0 4.46 -12.31 3.47 0 4.45 12.31 -3.17 0 -0.74 -2.17zm-0.77 -2.32l-1.53 -4.5 -1.5 4.5 3.03 0z"/>
   <path id="_6" class="fil3" d="M107.75 10.51c0,0.71 -0.15,1.36 -0.49,1.94 -0.33,0.6 -0.82,1.07 -1.51,1.44 -0.68,0.37 -1.52,0.54 -2.52,0.54l-1.86 0 0 4.42 -3 0 0 -12.31 4.86 0c0.98,0 1.8,0.18 2.49,0.51 0.68,0.33 1.19,0.81 1.52,1.4 0.34,0.6 0.51,1.28 0.51,2.06zm-4.75 1.54c0.58,0 1,-0.14 1.28,-0.4 0.28,-0.27 0.42,-0.65 0.42,-1.14 0,-0.5 -0.14,-0.88 -0.42,-1.14 -0.28,-0.27 -0.7,-0.41 -1.28,-0.41l-1.63 0 0 3.09 1.63 0z"/>
   <path id="_7" class="fil3" d="M117.53 10.51c0,0.71 -0.15,1.36 -0.49,1.94 -0.33,0.6 -0.82,1.07 -1.5,1.44 -0.69,0.37 -1.53,0.54 -2.53,0.54l-1.86 0 0 4.42 -3 0 0 -12.31 4.86 0c0.98,0 1.81,0.18 2.49,0.51 0.69,0.33 1.19,0.81 1.53,1.4 0.33,0.6 0.5,1.28 0.5,2.06zm-4.75 1.54c0.58,0 1,-0.14 1.28,-0.4 0.28,-0.27 0.42,-0.65 0.42,-1.14 0,-0.5 -0.14,-0.88 -0.42,-1.14 -0.28,-0.27 -0.7,-0.41 -1.28,-0.41l-1.63 0 0 3.09 1.63 0z"/>
  </g>
 </g>
</svg>
