<?xml version="1.0" encoding="UTF-8"?>
<!DOCTYPE svg PUBLIC "-//W3C//DTD SVG 1.1//EN" "http://www.w3.org/Graphics/SVG/1.1/DTD/svg11.dtd">
<!-- Creator: CorelDRAW (Evaluation Version) -->
<svg xmlns="http://www.w3.org/2000/svg" xml:space="preserve" width="154px" height="32px" version="1.1" style="shape-rendering:geometricPrecision; text-rendering:geometricPrecision; image-rendering:optimizeQuality; fill-rule:evenodd; clip-rule:evenodd"
viewBox="0 0 52.24 10.85"
 xmlns:xlink="http://www.w3.org/1999/xlink"
 xmlns:xodm="http://www.corel.com/coreldraw/odm/2003">
 <defs>
  <style type="text/css">
   <![CDATA[
    .fil0 {fill:none}
    .fil2 {fill:#FEFEFE;fill-rule:nonzero}
    .fil3 {fill:white;fill-rule:nonzero}
    .fil1 {fill:url(#id0)}
   ]]>
  </style>
  <linearGradient id="id0" gradientUnits="userSpaceOnUse" x1="-1.9" y1="-6.28" x2="15.04" y2="20.95">
   <stop offset="0" style="stop-opacity:1; stop-color:#364A94"/>
   <stop offset="1" style="stop-opacity:1; stop-color:#7D7AB8"/>
  </linearGradient>
 </defs>
 <g id="Layer_x0020_1">
  <metadata id="CorelCorpID_0Corel-Layer"/>
  <g id="_755716664">
   <rect class="fil0" width="52.24" height="10.85"/>
   <g>
    <path class="fil1" d="M8.76 10.85l-6.67 0c-1.14,0 -2.09,-0.95 -2.09,-2.09l0 -6.67c0,-1.14 0.95,-2.09 2.09,-2.09l6.67 0c1.14,0 2.09,0.95 2.09,2.09l0 6.67c0,1.14 -0.95,2.09 -2.09,2.09z"/>
    <path class="fil2" d="M5.71 6.47l-0.95 0 -1.71 -1.9 1.71 -1.9 0.95 0 -1.71 1.9 1.71 1.9zm-1.14 0l-0.76 0 -1.72 -1.9 1.72 -1.9 0.57 0 -1.52 1.9c0.57,0.57 1.14,1.33 1.71,1.9l0 0z"/>
    <path class="fil2" d="M5.33 4.38l0.95 0 1.72 1.9 -1.72 2.1 -0.95 0 1.91 -1.91 -1.91 -2.09zm1.33 0l0.58 0 1.9 2.09 -1.9 1.91 -0.58 0 1.72 -2.1c-0.57,-0.57 -1.14,-1.14 -1.72,-1.9z"/>
   </g>
   <path class="fil3" d="M17 3.14c0.55,0 1.04,0.11 1.45,0.33 0.41,0.22 0.73,0.53 0.96,0.93 0.23,0.4 0.34,0.85 0.34,1.37 0,0.51 -0.11,0.97 -0.34,1.37 -0.23,0.39 -0.55,0.71 -0.96,0.92 -0.42,0.22 -0.9,0.33 -1.45,0.33l-1.97 0 0 -5.25 1.97 0zm-0.08 4.15c0.48,0 0.86,-0.14 1.13,-0.4 0.27,-0.26 0.4,-0.64 0.4,-1.12 0,-0.49 -0.13,-0.86 -0.4,-1.13 -0.27,-0.27 -0.65,-0.41 -1.13,-0.41l-0.61 0 0 3.06 0.61 0z"/>
   <polygon id="_1" class="fil3" points="24.24,4.22 21.62,10.38 20.25,10.38 21.2,8.25 19.5,4.22 20.93,4.22 21.9,6.83 22.86,4.22 "/>
   <path id="_2" class="fil3" d="M26.18 3.14c0.55,0 1.04,0.11 1.45,0.33 0.41,0.22 0.73,0.53 0.96,0.93 0.23,0.4 0.34,0.85 0.34,1.37 0,0.51 -0.11,0.97 -0.34,1.37 -0.23,0.39 -0.55,0.71 -0.96,0.92 -0.42,0.22 -0.91,0.33 -1.45,0.33l-1.97 0 0 -5.25 1.97 0zm-0.08 4.15c0.48,0 0.86,-0.14 1.12,-0.4 0.27,-0.26 0.41,-0.64 0.41,-1.12 0,-0.49 -0.14,-0.86 -0.41,-1.13 -0.26,-0.27 -0.64,-0.41 -1.12,-0.41l-0.61 0 0 3.06 0.61 0z"/>
   <path id="_3" class="fil3" d="M33.09 6.24c0,0.12 -0.01,0.25 -0.02,0.37l-2.9 0c0.02,0.26 0.11,0.46 0.25,0.6 0.15,0.14 0.33,0.2 0.54,0.2 0.33,0 0.54,-0.13 0.67,-0.4l1.36 0c-0.07,0.28 -0.19,0.52 -0.38,0.74 -0.18,0.22 -0.4,0.39 -0.68,0.52 -0.28,0.12 -0.58,0.18 -0.92,0.18 -0.41,0 -0.77,-0.09 -1.09,-0.26 -0.32,-0.17 -0.57,-0.42 -0.75,-0.75 -0.18,-0.32 -0.27,-0.7 -0.27,-1.13 0,-0.44 0.09,-0.82 0.26,-1.14 0.18,-0.32 0.43,-0.58 0.75,-0.75 0.32,-0.17 0.69,-0.26 1.1,-0.26 0.4,0 0.76,0.08 1.08,0.25 0.31,0.18 0.56,0.42 0.73,0.73 0.18,0.31 0.27,0.68 0.27,1.1zm-1.31 -0.34c0,-0.21 -0.07,-0.39 -0.22,-0.52 -0.15,-0.13 -0.34,-0.2 -0.57,-0.2 -0.21,0 -0.39,0.06 -0.54,0.19 -0.14,0.13 -0.23,0.3 -0.27,0.53l1.6 0z"/>
   <polygon id="_4" class="fil3" points="35.15,7.2 36.05,4.22 37.41,4.22 35.93,8.39 34.35,8.39 32.87,4.22 34.24,4.22 "/>
   <path id="_5" class="fil3" d="M42.31 7.47l-1.96 0 -0.31 0.92 -1.34 0 1.9 -5.25 1.48 0 1.9 5.25 -1.35 0 -0.32 -0.92zm-0.33 -0.99l-0.65 -1.92 -0.64 1.92 1.29 0z"/>
   <path id="_6" class="fil3" d="M48.06 4.83c0,0.31 -0.06,0.59 -0.21,0.83 -0.14,0.26 -0.35,0.46 -0.64,0.62 -0.29,0.15 -0.65,0.23 -1.08,0.23l-0.79 0 0 1.88 -1.28 0 0 -5.25 2.07 0c0.42,0 0.77,0.08 1.07,0.22 0.29,0.14 0.51,0.34 0.65,0.6 0.14,0.25 0.21,0.54 0.21,0.87zm-2.02 0.66c0.24,0 0.42,-0.06 0.54,-0.17 0.12,-0.11 0.18,-0.28 0.18,-0.49 0,-0.21 -0.06,-0.37 -0.18,-0.48 -0.12,-0.12 -0.3,-0.18 -0.54,-0.18l-0.7 0 0 1.32 0.7 0z"/>
   <path id="_7" class="fil3" d="M52.24 4.83c0,0.31 -0.07,0.59 -0.21,0.83 -0.14,0.26 -0.35,0.46 -0.64,0.62 -0.3,0.15 -0.66,0.23 -1.08,0.23l-0.8 0 0 1.88 -1.27 0 0 -5.25 2.07 0c0.42,0 0.77,0.08 1.06,0.22 0.29,0.14 0.51,0.34 0.65,0.6 0.14,0.25 0.22,0.54 0.22,0.87zm-2.03 0.66c0.25,0 0.43,-0.06 0.55,-0.17 0.12,-0.11 0.18,-0.28 0.18,-0.49 0,-0.21 -0.06,-0.37 -0.18,-0.48 -0.12,-0.12 -0.3,-0.18 -0.55,-0.18l-0.7 0 0 1.32 0.7 0z"/>
  </g>
 </g>
</svg>
